<svg xmlns="http://www.w3.org/2000/svg" viewBox="0 0 64 64">
  <defs>
    <linearGradient id="g" x1="0" x2="1" y1="0" y2="1">
      <stop offset="0" stop-color="#7fb2ff" />
      <stop offset="1" stop-color="#8bf0d3" />
    </linearGradient>
  </defs>
  <rect x="6" y="6" width="52" height="52" rx="14" fill="url(#g)" />
  <path
    d="M20 35c0-7 5-12 12-12s12 5 12 12-5 12-12 12-12-5-12-12Z"
    fill="rgba(0,0,0,0.18)"
  />
  <path
    d="M19 35c0-7.7 5.9-13.8 13-13.8S45 27.3 45 35c0 7.7-5.9 13.8-13 13.8S19 42.7 19 35Z"
    fill="rgba(255,255,255,0.30)"
  />
  <path d="M22 35c0-6 4.6-10.8 10-10.8S42 29 42 35s-4.6 10.8-10 10.8S22 41 22 35Z" fill="#0b0c10" />
  <path d="M32 25.2c5.5 0 10 4.4 10 9.8 0 2.5-1 4.8-2.6 6.6-2.5-1.2-4.9-1.8-7.4-1.8-2.6 0-5.1.7-7.6 2-1.7-1.8-2.7-4.2-2.7-6.8 0-5.4 4.5-9.8 10.3-9.8Z" fill="rgba(255,255,255,0.13)" />
</svg>

